<svg id="Layer_1" data-name="Layer 1" xmlns="http://www.w3.org/2000/svg" xmlns:xlink="http://www.w3.org/1999/xlink" viewBox="0 0 986.76 986.76"><defs><style>.cls-1{fill:url(#linear-gradient);}.cls-2{fill:#fff;}</style><linearGradient id="linear-gradient" x1="481.83" y1="484.45" x2="1374" y2="1174.24" gradientUnits="userSpaceOnUse"><stop offset="0.04" stop-color="#4f4099"/><stop offset="0.29" stop-color="#4c3e95"/><stop offset="0.54" stop-color="#443889"/><stop offset="0.8" stop-color="#352e74"/><stop offset="1" stop-color="#27235f"/></linearGradient></defs><rect class="cls-1" width="986.76" height="986.76" rx="46.76"/><path class="cls-2" d="M362.36,499.88c-3.75,27.64,2.74,50.35,19.94,69.46a80.13,80.13,0,0,0,35.49,24.29,81.48,81.48,0,0,0,26.36,3.94H545.78L530,709.9H442.68c-59.7,0-108.8-22.09-146-65.7-37.66-43.53-52.31-96.47-43.45-157.31,8.13-58.56,36.11-108.66,83.12-148.83C384,297.44,437.63,276.84,495.7,276.84h95.11L575.18,388.09l-87.2.05c-29.24,0-55.65,10.79-80.78,33C381.49,443.85,366.82,469.61,362.36,499.88Z"/><polygon class="cls-2" points="736.04 276.89 675.42 709.92 563.9 709.92 623.38 285.07 624.52 276.89 736.04 276.89"/></svg>